HIERARCHY
ROOT hip
{
  OFFSET 0 0 0
  CHANNELS 6 Xposition Yposition Zposition Zrotation Yrotation Xrotation
  JOINT abdomen
  {
    OFFSET 0 20.6881 -0.73152
    CHANNELS 3 Zrotation Xrotation Yrotation
    JOINT chest
    {
      OFFSET 0 11.7043 -0.48768
      CHANNELS 3 Zrotation Xrotation Yrotation
      JOINT neck
      {
        OFFSET 0 22.1894 -2.19456
        CHANNELS 3 Zrotation Xrotation Yrotation
        JOINT head
        {
          OFFSET -0.24384 7.07133 1.2192
          CHANNELS 3 Zrotation Xrotation Yrotation
          JOINT leftEye
          {
            OFFSET 4.14528 8.04674 8.04672
            CHANNELS 3 Zrotation Xrotation Yrotation
            End Site
            {
              OFFSET 1 0 0
            }
          }
          JOINT rightEye
          {
            OFFSET -3.6576 8.04674 8.04672
            CHANNELS 3 Zrotation Xrotation Yrotation
            End Site
            {
              OFFSET 1 0 0
            }
          }
        }
      }
      JOINT rCollar
      {
        OFFSET -2.68224 19.2634 -4.8768
        CHANNELS 3 Zrotation Xrotation Yrotation
        JOINT rShldr
        {
          OFFSET -8.77824 -1.95073 1.46304
          CHANNELS 3 Zrotation Xrotation Yrotation
          JOINT rForeArm
          {
            OFFSET -28.1742 -1.7115 0.48768
            CHANNELS 3 Zrotation Xrotation Yrotation
            JOINT rHand
            {
              OFFSET -22.5879 0.773209 7.07136
              CHANNELS 3 Zrotation Xrotation Yrotation
              JOINT rThumb1
              {
                OFFSET -1.2192 -0.487915 3.41376
                CHANNELS 3 Zrotation Xrotation Yrotation
                JOINT rThumb2
                {
                  OFFSET -3.37035 -0.52449 3.41376
                  CHANNELS 3 Zrotation Xrotation Yrotation
                  End Site
                  {
                    OFFSET -1.78271 -1.18214 1.43049
                  }
                }
              }
              JOINT rIndex1
              {
                OFFSET -7.75947 0.938293 5.60832
                CHANNELS 3 Zrotation Xrotation Yrotation
                JOINT rIndex2
                {
                  OFFSET -2.54057 -0.884171 1.56538
                  CHANNELS 3 Zrotation Xrotation Yrotation
                  End Site
                  {
                    OFFSET -1.62519 -0.234802 1.16502
                  }
                }
              }
              JOINT rMid1
              {
                OFFSET -8.24714 1.18213 3.41376
                CHANNELS 3 Zrotation Xrotation Yrotation
                JOINT rMid2
                {
                  OFFSET -3.10165 -0.590103 1.0647
                  CHANNELS 3 Zrotation Xrotation Yrotation
                  End Site
                  {
                    OFFSET -2.48547 -0.328903 0.83742
                  }
                }
              }
              JOINT rRing1
              {
                OFFSET -8.82822 0.546677 1.51678
                CHANNELS 3 Zrotation Xrotation Yrotation
                JOINT rRing2
                {
                  OFFSET -2.60934 -0.819778 -0.0198488
                  CHANNELS 3 Zrotation Xrotation Yrotation
                  End Site
                  {
                    OFFSET -2.33842 -0.294052 0.168128
                  }
                }
              }
              JOINT rPinky1
              {
                OFFSET -8.27202 -0.0477905 -0.4584
                CHANNELS 3 Zrotation Xrotation Yrotation
                JOINT rPinky2
                {
                  OFFSET -1.82734 -0.647385 -0.700984
                  CHANNELS 3 Zrotation Xrotation Yrotation
                  End Site
                  {
                    OFFSET -1.69225 -0.51767 -0.607171
                  }
                }
              }
            }
          }
        }
      }
      JOINT lCollar
      {
        OFFSET 2.68224 19.2634 -4.8768
        CHANNELS 3 Zrotation Xrotation Yrotation
        JOINT lShldr
        {
          OFFSET 8.77824 -1.95073 1.46304
          CHANNELS 3 Zrotation Xrotation Yrotation
          JOINT lForeArm
          {
            OFFSET 28.1742 -1.7115 0.48768
            CHANNELS 3 Zrotation Xrotation Yrotation
            JOINT lHand
            {
              OFFSET 22.5879 0.773209 7.07136
              CHANNELS 3 Zrotation Xrotation Yrotation
              JOINT lThumb1
              {
                OFFSET 1.2192 -0.487915 3.41376
                CHANNELS 3 Zrotation Xrotation Yrotation
                JOINT lThumb2
                {
                  OFFSET 3.37035 -0.52449 3.41376
                  CHANNELS 3 Zrotation Xrotation Yrotation
                  End Site
                  {
                    OFFSET 1.78271 -1.18214 1.43049
                  }
                }
              }
              JOINT lIndex1
              {
                OFFSET 7.75947 0.938293 5.60832
                CHANNELS 3 Zrotation Xrotation Yrotation
                JOINT lIndex2
                {
                  OFFSET 2.54057 -0.884171 1.56538
                  CHANNELS 3 Zrotation Xrotation Yrotation
                  End Site
                  {
                    OFFSET 1.62519 -0.234802 1.16502
                  }
                }
              }
              JOINT lMid1
              {
                OFFSET 8.24714 1.18213 3.41376
                CHANNELS 3 Zrotation Xrotation Yrotation
                JOINT lMid2
                {
                  OFFSET 3.10165 -0.590103 1.0647
                  CHANNELS 3 Zrotation Xrotation Yrotation
                  End Site
                  {
                    OFFSET 2.48547 -0.328903 0.83742
                  }
                }
              }
              JOINT lRing1
              {
                OFFSET 8.82822 0.546677 1.51678
                CHANNELS 3 Zrotation Xrotation Yrotation
                JOINT lRing2
                {
                  OFFSET 2.60934 -0.819778 -0.0198488
                  CHANNELS 3 Zrotation Xrotation Yrotation
                  End Site
                  {
                    OFFSET 2.33842 -0.294052 0.168128
                  }
                }
              }
              JOINT lPinky1
              {
                OFFSET 8.27202 -0.0477905 -0.4584
                CHANNELS 3 Zrotation Xrotation Yrotation
                JOINT lPinky2
                {
                  OFFSET 1.82734 -0.647385 -0.700984
                  CHANNELS 3 Zrotation Xrotation Yrotation
                  End Site
                  {
                    OFFSET 1.69225 -0.51767 -0.607171
                  }
                }
              }
            }
          }
        }
      }
    }
  }
  JOINT rButtock
  {
    OFFSET -8.77824 4.35084 1.2192
    CHANNELS 3 Zrotation Xrotation Yrotation
    JOINT rThigh
    {
      OFFSET 0 -1.70687 -2.19456
      CHANNELS 3 Zrotation Xrotation Yrotation
      JOINT rShin
      {
        OFFSET 0 -36.8199 0.73152
        CHANNELS 3 Zrotation Xrotation Yrotation
        JOINT rFoot
        {
          OFFSET 0.73152 -45.1104 -5.12064
          CHANNELS 3 Zrotation Xrotation Yrotation
          End Site
          {
            OFFSET -1.1221 -3.69964 12.103
          }
        }
      }
    }
  }
  JOINT lButtock
  {
    OFFSET 8.77824 4.35084 1.2192
    CHANNELS 3 Zrotation Xrotation Yrotation
    JOINT lThigh
    {
      OFFSET 0 -1.70687 -2.19456
      CHANNELS 3 Zrotation Xrotation Yrotation
      JOINT lShin
      {
        OFFSET 0 -36.8199 0.73152
        CHANNELS 3 Zrotation Xrotation Yrotation
        JOINT lFoot
        {
          OFFSET -0.73152 -45.1104 -5.12064
          CHANNELS 3 Zrotation Xrotation Yrotation
          End Site
          {
            OFFSET 1.1221 -3.69964 12.103
          }
        }
      }
    }
  }
}
MOTION
Frames:	4
Frame Time:	0.03333
-3.0752341677434742 60.94047546386719 1.2623803839087486 -26.06502592563629 -19.548793584108353 -4.453916028141975 0.9391319006681442 8.343693763017654 6.195560842752457 1.1255139112472534 -13.900562971830368 -5.13819046318531 -18.46799612045288 10.170687139034271 -2.7208321541547775 12.884461730718613 -29.427697956562042 -2.229051813483238 -7.342041581869125 2.58618526160717 1.5227074921131134 2.2341852262616158 -3.2899731025099754 -11.68994128704071 3.7813232839107513 -6.694133877754211 -6.862087100744247 39.65494215488434 34.14605498313904 17.012511491775513 -28.654650449752808 -32.98169732093811 67.03123569488525 1.4124150574207306 -19.521982222795486 -6.459614261984825 5.270216837525368 6.9537703692913055 -2.3734109848737717 12.586112916469574 3.8118045777082443 -0.7938450202345848 -0.37807730957865715 1.0367785580456257 -5.652925819158554 8.287201076745987 9.317287355661392 7.457776889204979 -4.629750587046146 6.397252902388573 -1.7812704294919968 -1.4281324669718742 10.412551313638687 3.370649926364422 1.9108841568231583 -0.19374199211597443 3.8506999611854553 12.190913558006287 8.978466019034386 -3.1017745658755302 4.0310463309288025 1.2940485030412674 -2.191581353545189 9.466743394732475 -2.569228671491146 0.8694243058562279 -2.5887105613946915 -0.6285260617733002 -7.070370689034462 -66.4623874425888 36.54728651046753 -4.28938128054142 25.042659044265747 -38.12381386756897 -75.58217167854309 7.012730687856674 -11.956115663051605 5.447085052728653 -0.025294572114944458 -7.8289637714624405 -7.18085490167141 -9.426886439323425 7.392708510160446 -0.9004232659935951 -1.1828354001045227 -2.7196888625621796 4.176915250718594 -10.870887860655785 4.875829517841339 1.796285267919302 -5.964505970478058 -2.134811393916607 -5.895549729466438 -2.816101536154747 -3.157085068523884 9.971124082803726 2.1434124000370502 -1.4686116948723793 -4.311880990862846 -10.111846178770065 0.41159704327583313 -5.418475605547428 8.786974400281906 2.2891969978809357 4.901992455124855 -10.250459387898445 -1.8866383284330368 7.7810803055763245 2.7861717715859413 3.572715148329735 2.4450045078992844 -27.105237543582916 -40.59443682432175 -25.948253273963928 -16.32223829627037 68.49888145923615 8.838653862476349 -18.842301070690155 -10.70476122200489 -8.85178729891777 -1.1947871558368206 -2.6948006451129913 1.6422874107956886 27.12214082479477 -32.27121502161026 33.749766647815704 13.731023222208023 72.64089345932007 -27.176619172096252 5.7416244596242905 -4.82470728456974 8.951688185334206
-3.1465985332615674 61.01646041870117 1.3813333064317703 -26.03212594985962 -19.460044652223587 -4.219608977437019 1.086229607462883 7.908038645982742 6.303264945745468 0.865597128868103 -13.592353016138077 -4.87166203558445 -18.388951420783997 9.920340478420258 -2.387605234980583 12.729102820158005 -29.03599888086319 -2.1186628192663193 -7.329250127077103 2.994430884718895 1.4425523579120636 2.207288034260273 -3.132455013692379 -11.284884810447693 3.5400156676769257 -6.43724262714386 -6.984664052724838 39.512447118759155 34.09513592720032 16.89264088869095 -28.506080210208893 -32.91778564453125 67.20466732978821 1.4645464718341827 -19.240586310625076 -6.603681072592735 5.5116156488657 6.637277752161026 -2.083539292216301 12.455953359603882 4.095185324549675 -0.6793790683150291 -0.6376507692039013 0.8673165924847126 -5.0668953359127045 8.32480564713478 9.264270812273026 7.5237806886434555 -4.669200517237186 6.18584118783474 -1.7987745255231857 -1.5718184038996696 10.058244913816452 3.596786968410015 2.227272167801857 -0.7065615803003311 3.7677767872810364 11.795668601989746 8.867680057883263 -3.33148967474699 4.029635488986969 1.1698944121599197 -2.095445618033409 9.423707351088524 -2.312594912946224 0.6489655002951622 -2.11309053003788 -0.649629682302475 -6.916191950440407 -66.84652805328369 36.80891990661621 -4.400124326348305 25.233439207077026 -38.45387578010559 -75.48108458518982 7.205763906240463 -11.967917382717133 5.273728519678116 -0.21922364830970764 -8.151043429970741 -7.305730506777763 -9.49717104434967 7.497278451919556 -0.9511277452111244 -0.9872058033943176 -2.4741433560848236 4.15228720754385 -10.60757540166378 4.963795244693756 1.4856157265603542 -5.8770552277565 -2.08754014223814 -5.830854848027229 -2.5316908210515976 -2.7583156898617744 9.650860279798508 2.002065349370241 -1.499454416334629 -4.728835746645927 -10.076677054166794 -0.07195696234703064 -5.267507471144199 8.825717568397522 2.6666750013828278 4.4878459721803665 -10.554863288998604 -1.5418671816587448 7.423289716243744 2.6141080632805824 3.660155162215233 2.118796929717064 -27.15160757303238 -40.55469185113907 -25.625020265579224 -15.922181457281113 68.21679890155792 8.272261172533035 -18.370709717273712 -10.782148316502571 -8.936582654714584 -1.5051616542041302 -2.6104237139225006 1.3896340504288673 26.969008147716522 -32.21873492002487 33.36982637643814 13.607036769390106 72.44114935398102 -27.141868472099304 5.650906786322594 -5.248077884316444 8.71113695204258
-3.220074810553342 60.128089904785156 1.4946713373064995 -27.178797125816345 -19.913713485002518 -4.901866391301155 1.810428723692894 7.29859784245491 5.831287354230881 1.1361140012741089 -12.7806656062603 -4.747290685772896 -18.117761313915253 9.286116063594818 -2.554921433329582 11.69726774096489 -28.347223699092865 -1.895299181342125 -6.923407763242722 2.186863347887993 1.038171797990799 2.1369605138897896 -3.3297019824385643 -10.542352125048637 3.7215878069400787 -6.643638610839844 -7.076846212148666 38.53086590766907 35.49052566289902 18.135579228401184 -27.60739803314209 -32.57744550704956 66.63703680038452 1.3956834375858307 -18.071883469820023 -6.139723286032677 6.168102398514748 5.178558379411697 -0.27908049523830414 12.17136561870575 4.40554641187191 -1.428128443658352 0.5565115995705128 0.35701023414731026 -3.6461184918880463 8.855528980493546 9.845403581857681 7.912277206778526 -4.796047545969486 6.122562512755394 -0.6410714238882065 -2.3284373804926872 8.687971383333206 3.8173021003603935 3.1492439657449722 -2.158331349492073 2.961488664150238 12.062097787857056 8.546769842505455 -4.128631465137005 3.517821729183197 1.8093357235193253 -1.9280167669057846 9.665948376059532 -2.134517692029476 0.3151189908385277 -1.2682884838432074 -0.40812358260154724 -6.53484620153904 -66.56694531440735 36.049983501434326 -5.85318423807621 26.400328874588013 -38.572139739990234 -74.79045867919922 6.101246327161789 -11.393023431301117 4.259579926729202 -1.3415564596652985 -8.387689366936684 -7.751835510134697 -9.058147072792053 7.119152694940567 -0.7397482171654701 -0.7517454028129578 -2.2137705981731415 4.825988374650478 -11.659449934959412 5.556600987911224 1.8800613842904568 -5.993581116199493 -1.9678251072764397 -5.483315661549568 -1.8555005639791489 -1.7969261482357979 9.50860396027565 2.078197170048952 -1.2638518586754799 -4.712710306048393 -10.155255049467087 -1.318347305059433 -4.5040032640099525 7.9957495629787445 2.3523469269275665 4.046137109398842 -10.609971955418587 -0.28305821120738983 5.995367467403412 2.711322046816349 3.430987223982811 1.5347083657979965 -28.93558770418167 -39.633422791957855 -26.022952795028687 -18.003597110509872 68.41589391231537 9.926248043775558 -16.107901632785797 -11.986309289932251 -8.683929294347763 -1.8729461543262005 -3.4281326830387115 0.6049913540482521 28.140951097011566 -33.031133115291595 33.096463680267334 16.18644878268242 72.59262442588806 -28.826821446418762 2.875233516097069 -5.54307796061039 7.4395982176065445
-3.2916179751046 59.12371826171875 1.5980009734630585 -27.591859996318817 -20.52788034081459 -5.435282662510872 2.49405674636364 7.164852172136307 5.041108578443527 2.3462945222854614 -11.900353878736496 -4.562242403626442 -18.187563121318817 8.713362514972687 -3.6734240502119064 10.403713434934616 -28.136005103588104 -3.0455484241247177 -6.33880689740181 0.71555913425982 1.770833283662796 1.5652530267834663 -4.657103084027767 -10.125644132494926 3.917512446641922 -7.625192999839783 -7.44804248213768 37.30951130390167 36.41842782497406 19.716559052467346 -27.801530957221985 -32.27436125278473 65.77558636665344 1.4339478313922882 -17.545845955610275 -4.803704582154751 7.007419243454933 4.187380224466324 0.4350844770669937 12.178261578083038 5.108175203204155 -2.27361973375082 1.4201936312019825 -0.39761854335665703 -2.904047816991806 9.174422174692154 10.476720482110977 8.151256665587425 -4.333184100687504 5.888885781168938 1.4064518362283707 -2.8118840977549553 7.37065002322197 4.278266541659832 4.279371276497841 -3.0664093047380447 1.8412372469902039 12.873090505599976 8.119987472891808 -4.611799232661724 2.818221151828766 3.1077367812395096 -1.5278365463018417 10.30444286763668 -1.9276657328009605 0.6180959567427635 -1.1826884653419256 0.43496981263160706 -6.1264584213495255 -66.42285168170929 34.39414858818054 -7.117438092827797 27.28558123111725 -37.86264717578888 -74.41868305206299 5.097643844783306 -10.877052247524261 3.1955476105213165 -2.3241300880908966 -8.562161698937416 -9.045735821127892 -8.80606234073639 6.426775306463242 -0.46049807220697403 -0.4056975245475769 -2.257233113050461 6.052198112010956 -13.119311928749084 6.149336993694305 2.2847691737115383 -5.662746727466583 -1.7826909944415092 -5.149305537343025 -1.1545266956090927 -1.6753040626645088 9.34020146727562 2.074232865124941 -1.7860296741127968 -4.757717773318291 -9.678808897733688 -2.3043300211429596 -3.356224335730076 7.275997549295425 1.4238949120044708 3.676713779568672 -10.840674117207527 0.20652003586292267 4.635498225688934 2.429196573793888 2.9921885579824448 0.8022131770849228 -31.247812807559967 -39.16444659233093 -27.461024522781372 -20.851974338293076 68.41441333293915 13.44955489039421 -14.329876005649567 -13.371329605579376 -8.52743312716484 -1.9677461497485638 -4.447854906320572 -0.05000408738851547 30.272288024425507 -33.33070367574692 32.371449172496796 19.52349230647087 72.16859936714172 -30.861019492149353 -0.703053418546915 -5.61222530901432 6.286162510514259
